999
"DXF R12 Output" (www.mydxf.blogspot.com)
 0 
SECTION
 2 
HEADER
 9 
$ACADVER
 1 
AC1009
 9 
$EXTMIN
 10 
 0 
 20 
 0 
 9 
$EXTMAX
 10 
 8.5 
 20 
 11 
 0 
ENDSEC
 0 
SECTION
 2 
ENTITIES
0
LINE
8
Layer 1
10
52.484900
20
19.606500
11
5.060400
21
561.669500
0
LINE
8
Layer 1
10
5.060400
20
561.669500
11
5.036465
21
564.159730
0
LINE
8
Layer 1
10
5.036465
20
564.159730
11
5.389882
21
566.580238
0
LINE
8
Layer 1
10
5.389882
20
566.580238
11
6.099279
21
568.893985
0
LINE
8
Layer 1
10
6.099279
20
568.893985
11
7.143281
21
571.063931
0
LINE
8
Layer 1
10
7.143281
20
571.063931
11
8.500517
21
573.053036
0
LINE
8
Layer 1
10
8.500517
20
573.053036
11
10.149613
21
574.824259
0
LINE
8
Layer 1
10
10.149613
20
574.824259
11
12.069195
21
576.340560
0
LINE
8
Layer 1
10
12.069195
20
576.340560
11
14.237890
21
577.564900
0
LINE
8
Layer 1
10
14.237890
20
577.564900
11
14.237900
21
577.565000
0
LINE
8
Layer 1
10
14.237900
20
577.565000
11
193.080900
21
660.961100
0
LINE
8
Layer 1
10
193.080900
20
660.961100
11
194.875169
21
661.669476
0
LINE
8
Layer 1
10
194.875169
20
661.669476
11
196.741670
21
662.156660
0
LINE
8
Layer 1
10
196.741670
20
662.156660
11
198.362533
21
662.392697
0
LINE
8
Layer 1
10
198.362533
20
662.392697
11
199.968027
21
662.462757
0
LINE
8
Layer 1
10
199.968027
20
662.462757
11
201.548702
21
662.373169
0
LINE
8
Layer 1
10
201.548702
20
662.373169
11
203.095108
21
662.130267
0
LINE
8
Layer 1
10
203.095108
20
662.130267
11
204.597796
21
661.740380
0
LINE
8
Layer 1
10
204.597796
20
661.740380
11
206.047316
21
661.209841
0
LINE
8
Layer 1
10
206.047316
20
661.209841
11
208.749054
21
659.752130
0
LINE
8
Layer 1
10
208.749054
20
659.752130
11
211.124725
21
657.807786
0
LINE
8
Layer 1
10
211.124725
20
657.807786
11
212.166662
21
656.668954
0
LINE
8
Layer 1
10
212.166662
20
656.668954
11
213.098733
21
655.427458
0
LINE
8
Layer 1
10
213.098733
20
655.427458
11
213.911489
21
654.089630
0
LINE
8
Layer 1
10
213.911489
20
654.089630
11
214.595480
21
652.661800
0
LINE
8
Layer 1
10
214.595480
20
652.661800
11
215.141257
21
651.150299
0
LINE
8
Layer 1
10
215.141257
20
651.150299
11
215.539370
21
649.561460
0
LINE
8
Layer 1
10
215.539370
20
649.561460
11
217.036292
21
642.606381
0
LINE
8
Layer 1
10
217.036292
20
642.606381
11
218.764203
21
635.719865
0
LINE
8
Layer 1
10
218.764203
20
635.719865
11
220.720396
21
628.907306
0
LINE
8
Layer 1
10
220.720396
20
628.907306
11
222.902168
21
622.174098
0
LINE
8
Layer 1
10
222.902168
20
622.174098
11
225.306814
21
615.525635
0
LINE
8
Layer 1
10
225.306814
20
615.525635
11
227.931629
21
608.967312
0
LINE
8
Layer 1
10
227.931629
20
608.967312
11
230.773909
21
602.504522
0
LINE
8
Layer 1
10
230.773909
20
602.504522
11
233.830949
21
596.142660
0
LINE
8
Layer 1
10
233.830949
20
596.142660
11
237.100044
21
589.887120
0
LINE
8
Layer 1
10
237.100044
20
589.887120
11
240.578490
21
583.743296
0
LINE
8
Layer 1
10
240.578490
20
583.743296
11
244.263582
21
577.716582
0
LINE
8
Layer 1
10
244.263582
20
577.716582
11
248.152615
21
571.812373
0
LINE
8
Layer 1
10
248.152615
20
571.812373
11
252.242885
21
566.036061
0
LINE
8
Layer 1
10
252.242885
20
566.036061
11
256.531688
21
560.393043
0
LINE
8
Layer 1
10
256.531688
20
560.393043
11
261.016317
21
554.888711
0
LINE
8
Layer 1
10
261.016317
20
554.888711
11
265.694070
21
549.528460
0
LINE
8
Layer 1
10
265.694070
20
549.528460
11
266.957470
21
547.937144
0
LINE
8
Layer 1
10
266.957470
20
547.937144
11
267.997657
21
546.219920
0
LINE
8
Layer 1
10
267.997657
20
546.219920
11
268.809169
21
544.399806
0
LINE
8
Layer 1
10
268.809169
20
544.399806
11
269.386546
21
542.499821
0
LINE
8
Layer 1
10
269.386546
20
542.499821
11
269.724327
21
540.542985
0
LINE
8
Layer 1
10
269.724327
20
540.542985
11
269.817050
21
538.552317
0
LINE
8
Layer 1
10
269.817050
20
538.552317
11
269.659255
21
536.550836
0
LINE
8
Layer 1
10
269.659255
20
536.550836
11
269.245480
21
534.561560
0
LINE
8
Layer 1
10
269.245480
20
534.561560
11
266.205111
21
522.903814
0
LINE
8
Layer 1
10
266.205111
20
522.903814
11
263.484675
21
511.201360
0
LINE
8
Layer 1
10
263.484675
20
511.201360
11
261.083216
21
499.460344
0
LINE
8
Layer 1
10
261.083216
20
499.460344
11
258.999779
21
487.686912
0
LINE
8
Layer 1
10
258.999779
20
487.686912
11
257.233411
21
475.887209
0
LINE
8
Layer 1
10
257.233411
20
475.887209
11
255.783156
21
464.067381
0
LINE
8
Layer 1
10
255.783156
20
464.067381
11
254.648060
21
452.233575
0
LINE
8
Layer 1
10
254.648060
20
452.233575
11
253.827167
21
440.391935
0
LINE
8
Layer 1
10
253.827167
20
440.391935
11
253.319524
21
428.548608
0
LINE
8
Layer 1
10
253.319524
20
428.548608
11
253.124176
21
416.709739
0
LINE
8
Layer 1
10
253.124176
20
416.709739
11
253.240167
21
404.881474
0
LINE
8
Layer 1
10
253.240167
20
404.881474
11
253.666543
21
393.069958
0
LINE
8
Layer 1
10
253.666543
20
393.069958
11
254.402350
21
381.281339
0
LINE
8
Layer 1
10
254.402350
20
381.281339
11
255.446632
21
369.521760
0
LINE
8
Layer 1
10
255.446632
20
369.521760
11
256.798436
21
357.797369
0
LINE
8
Layer 1
10
256.798436
20
357.797369
11
258.456805
21
346.114310
0
LINE
8
Layer 1
10
258.456805
20
346.114310
11
260.420786
21
334.478730
0
LINE
8
Layer 1
10
260.420786
20
334.478730
11
262.689424
21
322.896774
0
LINE
8
Layer 1
10
262.689424
20
322.896774
11
265.261764
21
311.374588
0
LINE
8
Layer 1
10
265.261764
20
311.374588
11
268.136851
21
299.918318
0
LINE
8
Layer 1
10
268.136851
20
299.918318
11
271.313731
21
288.534109
0
LINE
8
Layer 1
10
271.313731
20
288.534109
11
274.791449
21
277.228108
0
LINE
8
Layer 1
10
274.791449
20
277.228108
11
278.569050
21
266.006460
0
LINE
8
Layer 1
10
278.569050
20
266.006460
11
282.645580
21
254.875310
0
LINE
8
Layer 1
10
282.645580
20
254.875310
11
287.020084
21
243.840805
0
LINE
8
Layer 1
10
287.020084
20
243.840805
11
291.691606
21
232.909090
0
LINE
8
Layer 1
10
291.691606
20
232.909090
11
296.659193
21
222.086312
0
LINE
8
Layer 1
10
296.659193
20
222.086312
11
301.921890
21
211.378615
0
LINE
8
Layer 1
10
301.921890
20
211.378615
11
307.478742
21
200.792145
0
LINE
8
Layer 1
10
307.478742
20
200.792145
11
313.328794
21
190.333049
0
LINE
8
Layer 1
10
313.328794
20
190.333049
11
319.471092
21
180.007472
0
LINE
8
Layer 1
10
319.471092
20
180.007472
11
325.904680
21
169.821560
0
LINE
8
Layer 1
10
325.904680
20
169.821560
11
327.666449
21
167.260563
0
LINE
8
Layer 1
10
327.666449
20
167.260563
11
329.549163
21
164.805683
0
LINE
8
Layer 1
10
329.549163
20
164.805683
11
331.547779
21
162.460259
0
LINE
8
Layer 1
10
331.547779
20
162.460259
11
333.657251
21
160.227627
0
LINE
8
Layer 1
10
333.657251
20
160.227627
11
335.872536
21
158.111125
0
LINE
8
Layer 1
10
335.872536
20
158.111125
11
338.188589
21
156.114091
0
LINE
8
Layer 1
10
338.188589
20
156.114091
11
340.600366
21
154.239861
0
LINE
8
Layer 1
10
340.600366
20
154.239861
11
343.102821
21
152.491773
0
LINE
8
Layer 1
10
343.102821
20
152.491773
11
345.690911
21
150.873164
0
LINE
8
Layer 1
10
345.690911
20
150.873164
11
348.359592
21
149.387372
0
LINE
8
Layer 1
10
348.359592
20
149.387372
11
351.103818
21
148.037733
0
LINE
8
Layer 1
10
351.103818
20
148.037733
11
353.918545
21
146.827587
0
LINE
8
Layer 1
10
353.918545
20
146.827587
11
356.798730
21
145.760268
0
LINE
8
Layer 1
10
356.798730
20
145.760268
11
359.739327
21
144.839116
0
LINE
8
Layer 1
10
359.739327
20
144.839116
11
362.735292
21
144.067468
0
LINE
8
Layer 1
10
362.735292
20
144.067468
11
365.781580
21
143.448660
0
LINE
8
Layer 1
10
365.781580
20
143.448660
11
481.555580
21
123.034860
0
LINE
8
Layer 1
10
481.555580
20
123.034860
11
482.255137
21
122.895160
0
LINE
8
Layer 1
10
482.255137
20
122.895160
11
483.833930
21
122.458978
0
LINE
8
Layer 1
10
483.833930
20
122.458978
11
485.331852
21
121.877028
0
LINE
8
Layer 1
10
485.331852
20
121.877028
11
486.742802
21
121.158909
0
LINE
8
Layer 1
10
486.742802
20
121.158909
11
488.060677
21
120.314222
0
LINE
8
Layer 1
10
488.060677
20
120.314222
11
489.279378
21
119.352566
0
LINE
8
Layer 1
10
489.279378
20
119.352566
11
490.392802
21
118.283542
0
LINE
8
Layer 1
10
490.392802
20
118.283542
11
492.279415
21
115.861790
0
LINE
8
Layer 1
10
492.279415
20
115.861790
11
493.671705
21
113.125765
0
LINE
8
Layer 1
10
493.671705
20
113.125765
11
494.167226
21
111.663901
0
LINE
8
Layer 1
10
494.167226
20
111.663901
11
494.520863
21
110.152268
0
LINE
8
Layer 1
10
494.520863
20
110.152268
11
494.726514
21
108.600468
0
LINE
8
Layer 1
10
494.726514
20
108.600468
11
494.778077
21
107.018100
0
LINE
8
Layer 1
10
494.778077
20
107.018100
11
494.669452
21
105.414764
0
LINE
8
Layer 1
10
494.669452
20
105.414764
11
494.394537
21
103.800060
0
LINE
8
Layer 1
10
494.394537
20
103.800060
11
492.471031
21
93.941207
0
LINE
8
Layer 1
10
492.471031
20
93.941207
11
491.073648
21
84.015383
0
LINE
8
Layer 1
10
491.073648
20
84.015383
11
490.202554
21
74.043488
0
LINE
8
Layer 1
10
490.202554
20
74.043488
11
489.857914
21
64.046423
0
LINE
8
Layer 1
10
489.857914
20
64.046423
11
490.039892
21
54.045086
0
LINE
8
Layer 1
10
490.039892
20
54.045086
11
490.748654
21
44.060380
0
LINE
8
Layer 1
10
490.748654
20
44.060380
11
491.984365
21
34.113205
0
LINE
8
Layer 1
10
491.984365
20
34.113205
11
493.747191
21
24.224460
0
LINE
8
Layer 1
10
493.747191
20
24.224460
11
493.992989
21
22.621001
0
LINE
8
Layer 1
10
493.992989
20
22.621001
11
494.075274
21
21.001140
0
LINE
8
Layer 1
10
494.075274
20
21.001140
11
493.992667
21
19.365210
0
LINE
8
Layer 1
10
493.992667
20
19.365210
11
493.750209
21
17.776546
0
LINE
8
Layer 1
10
493.750209
20
17.776546
11
493.355940
21
16.243191
0
LINE
8
Layer 1
10
493.355940
20
16.243191
11
492.817905
21
14.773184
0
LINE
8
Layer 1
10
492.817905
20
14.773184
11
492.144145
21
13.374568
0
LINE
8
Layer 1
10
492.144145
20
13.374568
11
491.342703
21
12.055383
0
LINE
8
Layer 1
10
491.342703
20
12.055383
11
489.388940
21
9.687474
0
LINE
8
Layer 1
10
489.388940
20
9.687474
11
487.020957
21
7.733785
0
LINE
8
Layer 1
10
487.020957
20
7.733785
11
485.701739
21
6.932376
0
LINE
8
Layer 1
10
485.701739
20
6.932376
11
484.303092
21
6.258646
0
LINE
8
Layer 1
10
484.303092
20
6.258646
11
482.833060
21
5.720637
0
LINE
8
Layer 1
10
482.833060
20
5.720637
11
481.299685
21
5.326388
0
LINE
8
Layer 1
10
481.299685
20
5.326388
11
479.711009
21
5.083942
0
LINE
8
Layer 1
10
479.711009
20
5.083942
11
478.075074
21
5.001340
0
LINE
8
Layer 1
10
478.075074
20
5.001340
11
68.424100
21
5.001180
0
LINE
8
Layer 1
10
68.424100
20
5.001180
11
65.386929
21
5.289779
0
LINE
8
Layer 1
10
65.386929
20
5.289779
11
62.535298
21
6.121066
0
LINE
8
Layer 1
10
62.535298
20
6.121066
11
59.925690
21
7.443278
0
LINE
8
Layer 1
10
59.925690
20
7.443278
11
57.614587
21
9.204652
0
LINE
8
Layer 1
10
57.614587
20
9.204652
11
55.658474
21
11.353425
0
LINE
8
Layer 1
10
55.658474
20
11.353425
11
54.113833
21
13.837833
0
LINE
8
Layer 1
10
54.113833
20
13.837833
11
53.037147
21
16.606112
0
LINE
8
Layer 1
10
53.037147
20
16.606112
11
52.484900
21
19.606500
0
LINE
8
Layer 1
10
52.484900
20
19.606500
11
52.484900
21
19.606500
 0 
ENDSEC
 0 
EOF